<?xml version="1.0" encoding="UTF-8" standalone="no"?>
<!DOCTYPE svg PUBLIC "-//W3C//DTD SVG 1.1//EN" "http://www.w3.org/Graphics/SVG/1.1/DTD/svg11.dtd">
<!-- Generiert durch Microsoft Visio, SVG Export uml_weather_object.svg Weather -->
<svg xmlns="http://www.w3.org/2000/svg" xmlns:xlink="http://www.w3.org/1999/xlink" xmlns:ev="http://www.w3.org/2001/xml-events"
		width="11.6929in" height="8.26772in" viewBox="0 0 841.89 595.276" xml:space="preserve" color-interpolation-filters="sRGB"
		class="st14">
	<style type="text/css">
	<![CDATA[
		.st1 {fill:#f2f2f2;stroke:#ffffff;stroke-linecap:round;stroke-linejoin:round;stroke-width:0.5}
		.st2 {fill:#5b9bd5;stroke:#ffffff;stroke-linecap:round;stroke-linejoin:round;stroke-width:0.5}
		.st3 {fill:#ffffff;font-family:Calibri;font-size:1.00001em}
		.st4 {fill:#5b9bd5;fill-opacity:0}
		.st5 {stroke:#5b9bd5;stroke-linecap:round;stroke-linejoin:round;stroke-width:0.5;visibility:hidden}
		.st6 {fill:#660e7a;font-family:Courier New;font-size:1.00001em;font-weight:bold}
		.st7 {fill:#ffffff;stroke:none;stroke-linecap:butt;stroke-width:7.2}
		.st8 {fill:#5b9ad4;font-family:Calibri;font-size:0.666664em}
		.st9 {marker-start:url(#mrkr22-77);stroke:#5592c9;stroke-linecap:round;stroke-linejoin:round;stroke-width:0.5}
		.st10 {fill:#5592c9;fill-opacity:1;stroke:#5592c9;stroke-opacity:1;stroke-width:0.16556291390728}
		.st11 {fill:#5b9ad4;font-family:Calibri;font-size:1.16666em}
		.st12 {stroke:#5592c9;stroke-linecap:round;stroke-linejoin:round;stroke-width:0.5}
		.st13 {fill:#41719d;font-family:Calibri;font-size:1.16666em}
		.st14 {fill:none;fill-rule:evenodd;font-size:12px;overflow:visible;stroke-linecap:square;stroke-miterlimit:3}
	]]>
	</style>

	<defs id="Markers">
		<g id="lend22">
			<path d="M 0 0 L 2.25 -1.125 L 4.5 0 L 2.25 1.125 L 0 0 " style="stroke-linecap:round;stroke-linejoin:round;fill:none"/>
		</g>
		<marker id="mrkr22-77" class="st10" refX="26.46" orient="auto" markerUnits="strokeWidth" overflow="visible">
			<use xlink:href="#lend22" transform="scale(6.04) "/>
		</marker>
	</defs>
	<g>
		<title>Weather</title>
		<g id="group1-1" transform="translate(70.8661,-477.296)">
			<title>Klasse</title>
			<desc>Object</desc>
			<g id="shape2-2">
				<title>Tabelle.2</title>
				<path d="M0 595.28 L184.25 595.28 L184.25 531.99 L0 531.99 L0 595.28 Z" class="st1"/>
			</g>
			<g id="shape3-4" transform="translate(0,-63.2841)">
				<title>Tabelle.3</title>
				<path d="M0 595.28 L184.25 595.28 L184.25 563.87 L0 563.87 L0 595.28 Z" class="st2"/>
			</g>
			<g id="shape5-6" transform="translate(175.748,-94.6878)">
				<title>Tabelle.5</title>
				<desc>Parameter</desc>
			</g>
			<g id="shape1-7">
				<text x="4" y="519.89" class="st3">Object</text>			</g>
		</g>
		<g id="shape6-9" transform="translate(73.7008,-494.534)">
			<title>Mitglied</title>
			<desc>+latitude: numeric</desc>
			<rect x="0" y="580.872" width="178.583" height="14.4037" class="st4"/>
			<rect x="0" y="580.872" width="178.583" height="14.4037" class="st5"/>
			<text x="8.5" y="591.67" class="st6">+latitude: numeric</text>		</g>
		<g id="shape8-13" transform="translate(73.7008,-508.938)">
			<title>Mitglied.8</title>
			<desc>+longitude: numeric</desc>
			<rect x="0" y="580.872" width="178.583" height="14.4037" class="st4"/>
			<rect x="0" y="580.872" width="178.583" height="14.4037" class="st5"/>
			<text x="8.5" y="591.67" class="st6">+longitude: numeric</text>		</g>
		<g id="shape11-17" transform="translate(73.7008,-523.342)">
			<title>Mitglied.11</title>
			<desc>+timezone: string</desc>
			<rect x="0" y="580.872" width="178.583" height="14.4037" class="st4"/>
			<rect x="0" y="580.872" width="178.583" height="14.4037" class="st5"/>
			<text x="8.5" y="591.67" class="st6">+timezone: string</text>		</g>
		<g id="shape12-21" transform="translate(73.7008,-480.131)">
			<title>Mitglied.12</title>
			<desc>+offset: numeric</desc>
			<rect x="0" y="580.872" width="178.583" height="14.4037" class="st4"/>
			<rect x="0" y="580.872" width="178.583" height="14.4037" class="st5"/>
			<text x="8.5" y="591.67" class="st6">+offset: numeric</text>		</g>
		<g id="group75-25" transform="translate(623.622,-448.489)">
			<title>Klasse.75</title>
			<desc>Object</desc>
			<g id="shape76-26">
				<title>Tabelle.76</title>
				<path d="M0 595.28 L184.25 595.28 L184.25 503.18 L0 503.18 L0 595.28 Z" class="st1"/>
			</g>
			<g id="shape77-28" transform="translate(0,-92.0916)">
				<title>Tabelle.77</title>
				<path d="M0 595.28 L184.25 595.28 L184.25 563.87 L0 563.87 L0 595.28 Z" class="st2"/>
			</g>
			<g id="shape79-30" transform="translate(175.748,-123.495)">
				<title>Tabelle.79</title>
				<desc>Parameter</desc>
			</g>
			<g id="shape75-31">
				<text x="4" y="491.08" class="st3">Object</text>			</g>
		</g>
		<g id="shape115-33" transform="translate(626.457,-523.342)">
			<title>Mitglied.115</title>
			<desc>+time: numeric</desc>
			<rect x="0" y="580.872" width="178.583" height="14.4037" class="st4"/>
			<rect x="0" y="580.872" width="178.583" height="14.4037" class="st5"/>
			<text x="8.5" y="591.67" class="st6">+time: numeric</text>		</g>
		<g id="shape116-37" transform="translate(626.457,-508.938)">
			<title>Mitglied.116</title>
			<desc>+summary: string</desc>
			<rect x="0" y="580.872" width="178.583" height="14.4037" class="st4"/>
			<rect x="0" y="580.872" width="178.583" height="14.4037" class="st5"/>
			<text x="8.5" y="591.67" class="st6">+summary: string</text>		</g>
		<g id="shape117-41" transform="translate(626.457,-451.323)">
			<title>Mitglied.117</title>
			<desc>+windSpeed: numeric</desc>
			<rect x="0" y="580.872" width="178.583" height="14.4037" class="st4"/>
			<rect x="0" y="580.872" width="178.583" height="14.4037" class="st5"/>
			<text x="8.5" y="591.67" class="st6">+windSpeed: numeric</text>		</g>
		<g id="shape118-45" transform="translate(626.457,-480.131)">
			<title>Mitglied.118</title>
			<desc>+temperature: numeric</desc>
			<rect x="0" y="580.872" width="178.583" height="14.4037" class="st4"/>
			<rect x="0" y="580.872" width="178.583" height="14.4037" class="st5"/>
			<text x="8.5" y="591.67" class="st6">+temperature: numeric</text>		</g>
		<g id="shape119-49" transform="translate(626.457,-465.727)">
			<title>Mitglied.119</title>
			<desc>+humidity: numeric</desc>
			<rect x="0" y="580.872" width="178.583" height="14.4037" class="st4"/>
			<rect x="0" y="580.872" width="178.583" height="14.4037" class="st5"/>
			<text x="8.5" y="591.67" class="st6">+humidity: numeric</text>		</g>
		<g id="shape120-53" transform="translate(626.457,-494.534)">
			<title>Mitglied.120</title>
			<desc>+icon: string</desc>
			<rect x="0" y="580.872" width="178.583" height="14.4037" class="st4"/>
			<rect x="0" y="580.872" width="178.583" height="14.4037" class="st5"/>
			<text x="8.5" y="591.67" class="st6">+icon: string</text>		</g>
		<g id="group127-57" transform="translate(347.244,-532.076)">
			<title>Klasse.127</title>
			<desc>Array</desc>
			<g id="shape128-58">
				<title>Tabelle.128</title>
				<path d="M0 595.28 L184.25 595.28 L184.25 586.77 L0 586.77 L0 595.28 Z" class="st1"/>
			</g>
			<g id="shape129-60" transform="translate(0,-8.50394)">
				<title>Tabelle.129</title>
				<path d="M0 595.28 L184.25 595.28 L184.25 563.87 L0 563.87 L0 595.28 Z" class="st2"/>
			</g>
			<g id="shape131-62" transform="translate(175.748,-39.9076)">
				<title>Tabelle.131</title>
				<desc>Parameter</desc>
			</g>
			<g id="shape127-63">
				<text x="4" y="574.67" class="st3">Array</text>			</g>
		</g>
		<g id="group135-65" transform="translate(162.992,-477.296)">
			<title>Dynamischer Verbinder</title>
			<g id="shape136-66" transform="translate(5.01099,24.2991)">
				<title>Tabelle.136</title>
				<desc>1</desc>
				<rect x="0.906097" y="585.674" width="4.05478" height="9.59985" class="st7"/>
				<text x="0.91" y="592.87" class="st8">1</text>			</g>
			<g id="shape139-69" transform="translate(557.767,53.1065)">
				<title>Tabelle.139</title>
				<desc>1</desc>
				<rect x="0.906097" y="585.674" width="4.05478" height="9.59985" class="st7"/>
				<text x="0.91" y="592.87" class="st8">1</text>			</g>
			<g id="shape135-72">
				<path d="M0 608.51 L0 608.87 L0 656.12 L552.76 656.12 L552.76 624.08" class="st9"/>
			</g>
		</g>
		<g id="group155-78" transform="translate(255.118,-521.271)">
			<title>Dynamischer Verbinder.155</title>
			<desc>hourly</desc>
			<g id="shape156-79" transform="translate(9.04123,14.7331)">
				<title>Tabelle.156</title>
				<desc>1</desc>
				<rect x="1.58423" y="578.474" width="7.09552" height="16.8" class="st7"/>
				<text x="1.58" y="591.07" class="st11">1</text>			</g>
			<g id="shape158-82" transform="translate(168.977,13.885)">
				<title>Tabelle.158</title>
				<desc>1</desc>
				<rect x="1.58423" y="578.474" width="7.09552" height="16.8" class="st7"/>
				<text x="1.58" y="591.07" class="st11">1</text>			</g>
			<g id="shape155-85">
				<path d="M0 591.91 L184.25 591.91 L184.25 584.47" class="st12"/>
				<rect x="29.9269" y="585.77" width="36.5243" height="16.8" class="st7"/>
				<text x="29.93" y="598.37" class="st13">hourly</text>			</g>
		</g>
		<g id="group160-90" transform="translate(255.118,-544.943)">
			<title>Dynamischer Verbinder.160</title>
			<desc>daily</desc>
			<g id="shape161-91" transform="translate(6.39288,-12.0976)">
				<title>Tabelle.161</title>
				<desc>1</desc>
				<rect x="1.58423" y="578.474" width="7.09552" height="16.8" class="st7"/>
				<text x="1.58" y="591.07" class="st11">1</text>			</g>
			<g id="shape163-94" transform="translate(75.4691,-12.0976)">
				<title>Tabelle.163</title>
				<desc>1</desc>
				<rect x="1.58423" y="578.474" width="7.09552" height="16.8" class="st7"/>
				<text x="1.58" y="591.07" class="st11">1</text>			</g>
			<g id="shape160-97">
				<path d="M0 588.19 L92.13 588.19" class="st12"/>
				<rect x="32.6509" y="579.789" width="26.8242" height="16.8" class="st7"/>
				<text x="32.65" y="592.39" class="st13">daily</text>			</g>
		</g>
		<g id="group170-102" transform="translate(531.496,-544.943)">
			<title>Dynamischer Verbinder.170</title>
			<desc>data</desc>
			<g id="shape171-103" transform="translate(6.39288,-12.0976)">
				<title>Tabelle.171</title>
				<desc>1</desc>
				<rect x="1.58423" y="578.474" width="7.09552" height="16.8" class="st7"/>
				<text x="1.58" y="591.07" class="st11">1</text>			</g>
			<g id="shape173-106" transform="translate(75.5921,-12.0976)">
				<title>Tabelle.173</title>
				<desc>*</desc>
				<rect x="1.58423" y="578.474" width="6.97247" height="16.8" class="st7"/>
				<text x="1.58" y="591.07" class="st11">*</text>			</g>
			<g id="shape170-109">
				<path d="M13.23 588.19 L13.59 588.19 L92.13 588.19" class="st9"/>
				<rect x="33.3345" y="579.789" width="25.457" height="16.8" class="st7"/>
				<text x="33.33" y="592.39" class="st13">data</text>			</g>
		</g>
	</g>
</svg>
