<?xml version="1.0" encoding="utf-8"?>
<!-- Generator: Adobe Illustrator 17.1.0, SVG Export Plug-In . SVG Version: 6.00 Build 0)  -->
<!DOCTYPE svg PUBLIC "-//W3C//DTD SVG 1.1//EN" "http://www.w3.org/Graphics/SVG/1.1/DTD/svg11.dtd">
<svg version="1.1" id="Ebene_1" xmlns:ev="http://www.w3.org/2001/xml-events"
	 xmlns="http://www.w3.org/2000/svg" xmlns:xlink="http://www.w3.org/1999/xlink" x="0px" y="0px" viewBox="0 0 841.9 155.3"
	 enable-background="new 0 0 841.9 155.3" xml:space="preserve">
<g>
	<title>Weather</title>
	<g id="group1-1" transform="translate(70.8661,-477.296)">
		<title>Klasse</title>
		<desc>Object</desc>
		<g id="shape2-2">
			<title>Tabelle.2</title>
			
				<path fill="#F2F2F2" stroke="#FFFFFF" stroke-width="0.5" stroke-linecap="round" stroke-linejoin="round" stroke-miterlimit="3" d="
				M0,595.3h184.3V532H0V595.3z"/>
		</g>
		<g id="shape3-4" transform="translate(0,-63.2841)">
			<title>Tabelle.3</title>
			
				<path fill="#5B9BD5" stroke="#FFFFFF" stroke-width="0.5" stroke-linecap="round" stroke-linejoin="round" stroke-miterlimit="3" d="
				M0,595.3h184.3v-31.4H0V595.3z"/>
		</g>
		<g id="shape5-6" transform="translate(175.748,-94.6878)">
			<title>Tabelle.5</title>
			<desc>Parameter</desc>
		</g>
		<g id="shape1-7">
			<text transform="matrix(1 0 0 1 4 519.8904)" fill="#FFFFFF" font-family="'Calibri'" font-size="12.0001">Object</text>
		</g>
	</g>
	<g id="shape6-9" transform="translate(73.7008,-494.534)">
		<title>Mitglied</title>
		<desc>+latitude: numeric</desc>
		<rect x="0" y="580.9" fill="#5B9BD5" fill-opacity="0" width="178.6" height="14.4"/>
		
			<rect x="0" y="580.9" display="none" fill="none" stroke="#5B9BD5" stroke-width="0.5" stroke-linecap="round" stroke-linejoin="round" stroke-miterlimit="3" width="178.6" height="14.4"/>
		<text transform="matrix(1 0 0 1 8.5 591.6703)" fill="#660E7A" font-family="'CourierNewPS-BoldMT'" font-size="12.0001">+latitude: numeric</text>
	</g>
	<g id="shape8-13" transform="translate(73.7008,-508.938)">
		<title>Mitglied.8</title>
		<desc>+longitude: numeric</desc>
		<rect x="0" y="580.9" fill="#5B9BD5" fill-opacity="0" width="178.6" height="14.4"/>
		
			<rect x="0" y="580.9" display="none" fill="none" stroke="#5B9BD5" stroke-width="0.5" stroke-linecap="round" stroke-linejoin="round" stroke-miterlimit="3" width="178.6" height="14.4"/>
		<text transform="matrix(1 0 0 1 8.5 591.6703)" fill="#660E7A" font-family="'CourierNewPS-BoldMT'" font-size="12.0001">+longitude: numeric</text>
	</g>
	<g id="shape11-17" transform="translate(73.7008,-523.342)">
		<title>Mitglied.11</title>
		<desc>+timezone: string</desc>
		<rect x="0" y="580.9" fill="#5B9BD5" fill-opacity="0" width="178.6" height="14.4"/>
		
			<rect x="0" y="580.9" display="none" fill="none" stroke="#5B9BD5" stroke-width="0.5" stroke-linecap="round" stroke-linejoin="round" stroke-miterlimit="3" width="178.6" height="14.4"/>
		<text transform="matrix(1 0 0 1 8.5 591.6703)" fill="#660E7A" font-family="'CourierNewPS-BoldMT'" font-size="12.0001">+timezone: string</text>
	</g>
	<g id="shape12-21" transform="translate(73.7008,-480.131)">
		<title>Mitglied.12</title>
		<desc>+offset: numeric</desc>
		<rect x="0" y="580.9" fill="#5B9BD5" fill-opacity="0" width="178.6" height="14.4"/>
		
			<rect x="0" y="580.9" display="none" fill="none" stroke="#5B9BD5" stroke-width="0.5" stroke-linecap="round" stroke-linejoin="round" stroke-miterlimit="3" width="178.6" height="14.4"/>
		<text transform="matrix(1 0 0 1 8.5 591.6703)" fill="#660E7A" font-family="'CourierNewPS-BoldMT'" font-size="12.0001">+offset: numeric</text>
	</g>
	<g id="group75-25" transform="translate(623.622,-448.489)">
		<title>Klasse.75</title>
		<desc>Object</desc>
		<g id="shape76-26">
			<title>Tabelle.76</title>
			
				<path fill="#F2F2F2" stroke="#FFFFFF" stroke-width="0.5" stroke-linecap="round" stroke-linejoin="round" stroke-miterlimit="3" d="
				M0,595.3h184.3v-92.1H0V595.3z"/>
		</g>
		<g id="shape77-28" transform="translate(0,-92.0916)">
			<title>Tabelle.77</title>
			
				<path fill="#5B9BD5" stroke="#FFFFFF" stroke-width="0.5" stroke-linecap="round" stroke-linejoin="round" stroke-miterlimit="3" d="
				M0,595.3h184.3v-31.4H0V595.3z"/>
		</g>
		<g id="shape79-30" transform="translate(175.748,-123.495)">
			<title>Tabelle.79</title>
			<desc>Parameter</desc>
		</g>
		<g id="shape75-31">
			<text transform="matrix(1 0 0 1 4 491.0803)" fill="#FFFFFF" font-family="'Calibri'" font-size="12.0001">Object</text>
		</g>
	</g>
	<g id="shape115-33" transform="translate(626.457,-523.342)">
		<title>Mitglied.115</title>
		<desc>+time: numeric</desc>
		<rect x="0" y="580.9" fill="#5B9BD5" fill-opacity="0" width="178.6" height="14.4"/>
		
			<rect x="0" y="580.9" display="none" fill="none" stroke="#5B9BD5" stroke-width="0.5" stroke-linecap="round" stroke-linejoin="round" stroke-miterlimit="3" width="178.6" height="14.4"/>
		<text transform="matrix(1 0 0 1 8.5 591.6703)" fill="#660E7A" font-family="'CourierNewPS-BoldMT'" font-size="12.0001">+time: numeric</text>
	</g>
	<g id="shape116-37" transform="translate(626.457,-508.938)">
		<title>Mitglied.116</title>
		<desc>+summary: string</desc>
		<rect x="0" y="580.9" fill="#5B9BD5" fill-opacity="0" width="178.6" height="14.4"/>
		
			<rect x="0" y="580.9" display="none" fill="none" stroke="#5B9BD5" stroke-width="0.5" stroke-linecap="round" stroke-linejoin="round" stroke-miterlimit="3" width="178.6" height="14.4"/>
		<text transform="matrix(1 0 0 1 8.5 591.6703)" fill="#660E7A" font-family="'CourierNewPS-BoldMT'" font-size="12.0001">+summary: string</text>
	</g>
	<g id="shape117-41" transform="translate(626.457,-451.323)">
		<title>Mitglied.117</title>
		<desc>+windSpeed: numeric</desc>
		<rect x="0" y="580.9" fill="#5B9BD5" fill-opacity="0" width="178.6" height="14.4"/>
		
			<rect x="0" y="580.9" display="none" fill="none" stroke="#5B9BD5" stroke-width="0.5" stroke-linecap="round" stroke-linejoin="round" stroke-miterlimit="3" width="178.6" height="14.4"/>
		<text transform="matrix(1 0 0 1 8.5 591.6703)" fill="#660E7A" font-family="'CourierNewPS-BoldMT'" font-size="12.0001">+windSpeed: numeric</text>
	</g>
	<g id="shape118-45" transform="translate(626.457,-480.131)">
		<title>Mitglied.118</title>
		<desc>+temperature: numeric</desc>
		<rect x="0" y="580.9" fill="#5B9BD5" fill-opacity="0" width="178.6" height="14.4"/>
		
			<rect x="0" y="580.9" display="none" fill="none" stroke="#5B9BD5" stroke-width="0.5" stroke-linecap="round" stroke-linejoin="round" stroke-miterlimit="3" width="178.6" height="14.4"/>
		<text transform="matrix(1 0 0 1 8.5 591.6703)" fill="#660E7A" font-family="'CourierNewPS-BoldMT'" font-size="12.0001">+temperature: numeric</text>
	</g>
	<g id="shape119-49" transform="translate(626.457,-465.727)">
		<title>Mitglied.119</title>
		<desc>+humidity: numeric</desc>
		<rect x="0" y="580.9" fill="#5B9BD5" fill-opacity="0" width="178.6" height="14.4"/>
		
			<rect x="0" y="580.9" display="none" fill="none" stroke="#5B9BD5" stroke-width="0.5" stroke-linecap="round" stroke-linejoin="round" stroke-miterlimit="3" width="178.6" height="14.4"/>
		<text transform="matrix(1 0 0 1 8.5 591.6703)" fill="#660E7A" font-family="'CourierNewPS-BoldMT'" font-size="12.0001">+humidity: numeric</text>
	</g>
	<g id="shape120-53" transform="translate(626.457,-494.534)">
		<title>Mitglied.120</title>
		<desc>+icon: string</desc>
		<rect x="0" y="580.9" fill="#5B9BD5" fill-opacity="0" width="178.6" height="14.4"/>
		
			<rect x="0" y="580.9" display="none" fill="none" stroke="#5B9BD5" stroke-width="0.5" stroke-linecap="round" stroke-linejoin="round" stroke-miterlimit="3" width="178.6" height="14.4"/>
		<text transform="matrix(1 0 0 1 8.5 591.6703)" fill="#660E7A" font-family="'CourierNewPS-BoldMT'" font-size="12.0001">+icon: string</text>
	</g>
	<g id="group127-57" transform="translate(347.244,-532.076)">
		<title>Klasse.127</title>
		<desc>Array</desc>
		<g id="shape128-58">
			<title>Tabelle.128</title>
			
				<path fill="#F2F2F2" stroke="#FFFFFF" stroke-width="0.5" stroke-linecap="round" stroke-linejoin="round" stroke-miterlimit="3" d="
				M0,595.3h184.3v-8.5H0V595.3z"/>
		</g>
		<g id="shape129-60" transform="translate(0,-8.50394)">
			<title>Tabelle.129</title>
			
				<path fill="#5B9BD5" stroke="#FFFFFF" stroke-width="0.5" stroke-linecap="round" stroke-linejoin="round" stroke-miterlimit="3" d="
				M0,595.3h184.3v-31.4H0V595.3z"/>
		</g>
		<g id="shape131-62" transform="translate(175.748,-39.9076)">
			<title>Tabelle.131</title>
			<desc>Parameter</desc>
		</g>
		<g id="shape127-63">
			<text transform="matrix(1 0 0 1 4 574.6703)" fill="#FFFFFF" font-family="'Calibri'" font-size="12.0001">Array</text>
		</g>
	</g>
	<g id="group135-65" transform="translate(162.992,-477.296)">
		<title>Dynamischer Verbinder</title>
		<g id="shape136-66" transform="translate(5.01099,24.2991)">
			<title>Tabelle.136</title>
			<desc>1</desc>
			<rect x="0.9" y="585.7" fill="#FFFFFF" width="4.1" height="9.6"/>
			<text transform="matrix(1 0 0 1 0.91 592.8704)" fill="#5B9AD4" font-family="'Calibri'" font-size="8">1</text>
		</g>
		<g id="shape139-69" transform="translate(557.767,53.1065)">
			<title>Tabelle.139</title>
			<desc>1</desc>
			<rect x="0.9" y="585.7" fill="#FFFFFF" width="4.1" height="9.6"/>
			<text transform="matrix(1 0 0 1 0.91 592.8704)" fill="#5B9AD4" font-family="'Calibri'" font-size="8">1</text>
		</g>
		<g id="shape135-72">
			<path fill="none" d=""/>
			<g transform="scale(6.04) ">
				<g id="lend22">
					
						<path fill="none" stroke="#5592C9" stroke-width="0.1656" stroke-linecap="round" stroke-linejoin="round" stroke-miterlimit="3" d="
						M0,595.3l3.4,6.8L0,608.9l-3.4-6.8L0,595.3"/>
				</g>
			</g>
			
				<path fill="none" stroke="#5592C9" stroke-width="0.1656" stroke-linecap="round" stroke-linejoin="round" stroke-miterlimit="3" d="
				M552.8,624.1"/>
		</g>
	</g>
	<g id="group155-78" transform="translate(255.118,-521.271)">
		<title>Dynamischer Verbinder.155</title>
		<desc>hourly</desc>
		<g id="shape156-79" transform="translate(9.04123,14.7331)">
			<title>Tabelle.156</title>
			<desc>1</desc>
			<rect x="1.6" y="578.5" fill="#FFFFFF" width="7.1" height="16.8"/>
			<text transform="matrix(1 0 0 1 1.58 591.0704)" fill="#5B9AD4" font-family="'Calibri'" font-size="13.9999">1</text>
		</g>
		<g id="shape158-82" transform="translate(168.977,13.885)">
			<title>Tabelle.158</title>
			<desc>1</desc>
			<rect x="1.6" y="578.5" fill="#FFFFFF" width="7.1" height="16.8"/>
			<text transform="matrix(1 0 0 1 1.58 591.0704)" fill="#5B9AD4" font-family="'Calibri'" font-size="13.9999">1</text>
		</g>
		<g id="shape155-85">
			
				<path fill="none" stroke="#5592C9" stroke-width="0.5" stroke-linecap="round" stroke-linejoin="round" stroke-miterlimit="3" d="
				M0,591.9h184.3v-7.4"/>
			<rect x="29.9" y="585.8" fill="#FFFFFF" width="36.5" height="16.8"/>
			<text transform="matrix(1 0 0 1 29.93 598.3704)" fill="#41719D" font-family="'Calibri'" font-size="13.9999">hourly</text>
		</g>
	</g>
	<g id="group160-90" transform="translate(255.118,-544.943)">
		<title>Dynamischer Verbinder.160</title>
		<desc>daily</desc>
		<g id="shape161-91" transform="translate(6.39288,-12.0976)">
			<title>Tabelle.161</title>
			<desc>1</desc>
			<rect x="1.6" y="578.5" fill="#FFFFFF" width="7.1" height="16.8"/>
			<text transform="matrix(1 0 0 1 1.58 591.0704)" fill="#5B9AD4" font-family="'Calibri'" font-size="13.9999">1</text>
		</g>
		<g id="shape163-94" transform="translate(75.4691,-12.0976)">
			<title>Tabelle.163</title>
			<desc>1</desc>
			<rect x="1.6" y="578.5" fill="#FFFFFF" width="7.1" height="16.8"/>
			<text transform="matrix(1 0 0 1 1.58 591.0704)" fill="#5B9AD4" font-family="'Calibri'" font-size="13.9999">1</text>
		</g>
		<g id="shape160-97">
			
				<path fill="none" stroke="#5592C9" stroke-width="0.5" stroke-linecap="round" stroke-linejoin="round" stroke-miterlimit="3" d="
				M0,588.2h92.1"/>
			<rect x="32.7" y="579.8" fill="#FFFFFF" width="26.8" height="16.8"/>
			<text transform="matrix(1 0 0 1 32.65 592.3904)" fill="#41719D" font-family="'Calibri'" font-size="13.9999">daily</text>
		</g>
	</g>
	<g id="group170-102" transform="translate(531.496,-544.943)">
		<title>Dynamischer Verbinder.170</title>
		<desc>data</desc>
		<g id="shape171-103" transform="translate(6.39288,-12.0976)">
			<title>Tabelle.171</title>
			<desc>1</desc>
			<rect x="1.6" y="578.5" fill="#FFFFFF" width="7.1" height="16.8"/>
			<text transform="matrix(1 0 0 1 1.58 591.0704)" fill="#5B9AD4" font-family="'Calibri'" font-size="13.9999">1</text>
		</g>
		<g id="shape173-106" transform="translate(75.5921,-12.0976)">
			<title>Tabelle.173</title>
			<desc>*</desc>
			<rect x="1.6" y="578.5" fill="#FFFFFF" width="7" height="16.8"/>
			<text transform="matrix(1 0 0 1 1.58 591.0704)" fill="#5B9AD4" font-family="'Calibri'" font-size="13.9999">*</text>
		</g>
		<g id="shape170-109">
			<path fill="none" d=""/>
			<g transform="scale(6.04) ">
				<g id="lend22_1_">
					
						<path fill="none" stroke="#5592C9" stroke-width="0.1656" stroke-linecap="round" stroke-linejoin="round" stroke-miterlimit="3" d="
						M0,588.2l6.8-3.4l6.8,3.4l-6.8,3.4L0,588.2"/>
				</g>
			</g>
			
				<path fill="none" stroke="#5592C9" stroke-width="0.1656" stroke-linecap="round" stroke-linejoin="round" stroke-miterlimit="3" d="
				M92.1,588.2"/>
			<rect x="33.3" y="579.8" fill="#FFFFFF" width="25.5" height="16.8"/>
			<text transform="matrix(1 0 0 1 33.33 592.3904)" fill="#41719D" font-family="'Calibri'" font-size="13.9999">data</text>
		</g>
	</g>
</g>
</svg>
